:FULLY-SPECIFIED
:FORCE-ALL-JOINTS-BE-3DOF
:DEGREES
408
root 4.57775 16.22 -11.183 1.43482 -38.7684 -1.17558
lfemur -28.683 7.14744 -10.3022
ltibia 45.6065 -0 0
lfoot -11.909 14.4343 0.00746311
ltoes 1.45272 -0 0
rfemur -42.3878 -26.1762 26.2951
rtibia 87.5212 -0 0
rfoot 5.04119 -4.3864 -0.00798408
rtoes 39.9351 -0 0
lowerback 5.70463 4.72343 -0.911348
upperback 1.70097 6.17213 -2.31751
thorax -1.27011 3.07595 -2.278
lowerneck -6.26787 2.4743 7.40179
upperneck 3.81711 2.65012 0.195356
head 2.41713 1.4371 -1.11251
lclavicle -1.66755e-13 -5.19042e-15 -6.78813e-31
lhumerus -45.6518 -17.6926 94.1774
lradius 51.3954 -0 0
lwrist 19.5603 0 0
lhand -19.2917 2.76375 0.00302133
lfingers 7.12502 -0 0
lthumb 7.0236 32.6276 0.00308336
rclavicle -1.66755e-13 -5.19042e-15 -6.78813e-31
rhumerus -45.4142 10.1401 -91.5921
rradius 64.402 -0 0
rwrist 7.85034 0 0
rhand -19.1879 -17.5622 -0.00586634
rfingers 7.12502 -0 0
rthumb 7.12374 -47.4209 -0.00542965
409
root 4.5258 16.1937 -11.0758 1.14437 -39.2041 -0.945339
lfemur -28.342 7.7849 -10.4443
ltibia 46.3999 -0 0
lfoot -12.768 14.1299 0.0122843
ltoes 1.75843 -0 0
rfemur -44.2024 -26.2258 26.3131
rtibia 87.5151 -0 0
rfoot 4.67556 -3.61127 -0.0242322
rtoes 39.1217 -0 0
lowerback 5.86761 4.71785 -0.941154
upperback 1.73388 6.15748 -2.37789
thorax -1.32248 3.06799 -2.33512
lowerneck -6.26494 2.71605 7.57197
upperneck 3.85949 2.97504 -0.124354
head 2.45715 1.59335 -1.23303
lclavicle -1.64402e-13 -4.18433e-15 -7.53304e-31
lhumerus -45.599 -17.522 94.1692
lradius 51.0999 -0 0
lwrist 19.187 0 0
lhand -19.8166 2.35482 0.00709643
lfingers 7.12502 -0 0
lthumb 6.51688 32.2345 0.00703505
rclavicle -1.64402e-13 -4.18433e-15 -7.53304e-31
rhumerus -45.3669 9.96783 -91.3537
rradius 64.8243 -0 0
rwrist 7.98276 0 0
rhand -19.6959 -17.3204 -0.0145633
rfingers 7.12502 -0 0
rthumb 6.63333 -47.1951 -0.0136204
410
root 4.47187 16.167 -10.9714 0.90431 -39.5785 -0.783998
lfemur -28.0185 8.41138 -10.5181
ltibia 47.1879 -0 0
lfoot -13.6606 13.7759 0.0139418
ltoes 2.09972 -0 0
rfemur -45.8973 -26.0301 26.3073
rtibia 87.0462 -0 0
rfoot 4.11158 -2.60973 -0.0374847
rtoes 37.8309 -0 0
lowerback 6.02057 4.69885 -0.91704
upperback 1.77103 6.12874 -2.41631
thorax -1.36207 3.05324 -2.39758
lowerneck -6.26023 2.96277 7.75089
upperneck 3.90031 3.30731 -0.462113
head 2.49898 1.75281 -1.36072
lclavicle -1.57591e-13 -3.18287e-15 -4.32431e-31
lhumerus -45.5011 -17.3635 94.1552
lradius 50.7535 -0 0
lwrist 18.7118 0 0
lhand -20.3297 1.90899 0.0100936
lfingers 7.12502 -0 0
lthumb 6.02147 31.8026 0.00986241
rclavicle -1.57591e-13 -3.18287e-15 -4.32431e-31
rhumerus -45.2938 9.78942 -91.1031
rradius 65.2154 -0 0
rwrist 8.15495 0 0
rhand -20.2641 -17.0403 -0.0221921
rfingers 7.12502 -0 0
rthumb 6.08473 -46.9324 -0.0208644
411
root 4.4154 16.1406 -10.8701 0.723236 -39.8555 -0.70095
lfemur -27.7225 8.99524 -10.5162
ltibia 47.9567 -0 0
lfoot -14.5532 13.3803 0.01245
ltoes 2.41078 -0 0
rfemur -47.372 -25.5963 26.1834
rtibia 86.1524 -0 0
rfoot 3.46819 -1.5202 -0.0397736
rtoes 36.183 -0 0
lowerback 6.16207 4.66276 -0.842095
upperback 1.80996 6.08126 -2.43222
thorax -1.39168 3.02934 -2.46271
lowerneck -6.25577 3.20387 7.93209
upperneck 3.93843 3.63231 -0.802376
head 2.54109 1.90855 -1.48998
lclavicle -1.47867e-13 -2.0261e-15 4.08424e-32
lhumerus -45.3726 -17.2398 94.1458
lradius 50.3843 -0 0
lwrist 18.176 0 0
lhand -20.8075 1.45788 0.010815
lfingers 7.12502 -0 0
lthumb 5.56014 31.3635 0.0104629
rclavicle -1.47867e-13 -2.0261e-15 4.08424e-32
rhumerus -45.2139 9.59289 -90.8473
rradius 65.5829 -0 0
rwrist 8.36238 0 0
rhand -20.8846 -16.772 -0.025741
rfingers 7.12502 -0 0
rthumb 5.48565 -46.6819 -0.0242875
412
root 4.35579 16.1153 -10.7726 0.609609 -39.9985 -0.705552
lfemur -27.4647 9.50487 -10.4318
ltibia 48.6923 -0 0
lfoot -15.4118 12.9509 0.00850543
ltoes 2.6258 -0 0
rfemur -48.531 -24.9343 25.8526
rtibia 84.8719 -0 0
rfoot 2.8645 -0.481186 -0.0297369
rtoes 34.2985 -0 0
lowerback 6.2906 4.60597 -0.719424
upperback 1.8482 6.01039 -2.4251
thorax -1.41411 2.9939 -2.52784
lowerneck -6.2537 3.42878 8.10906
upperneck 3.97307 3.9354 -1.12961
head 2.58198 2.0536 -1.61524
lclavicle -1.36777e-13 -5.5405e-16 4.30829e-31
lhumerus -45.2281 -17.1735 94.1515
lradius 50.0205 -0 0
lwrist 17.6211 0 0
lhand -21.2264 1.03315 0.00897587
lfingers 7.12502 -0 0
lthumb 5.15569 30.9489 0.00860733
rclavicle -1.36777e-13 -5.5405e-16 4.30829e-31
rhumerus -45.1462 9.36634 -90.5932
rradius 65.9349 -0 0
rwrist 8.60051 0 0
rhand -21.5494 -16.5658 -0.0233422
rfingers 7.12502 -0 0
rthumb 4.8438 -46.4924 -0.0220904
